<?xml version="1.0" encoding="utf-8"?>
<!-- Generator: Adobe Illustrator 23.1.0, SVG Export Plug-In . SVG Version: 6.00 Build 0)  -->
<svg version="1.1" id="Layer_1" xmlns="http://www.w3.org/2000/svg" xmlns:xlink="http://www.w3.org/1999/xlink" x="0px" y="0px"
	 viewBox="0 0 139.2 27.1" style="enable-background:new 0 0 139.2 27.1;" xml:space="preserve">
<style type="text/css">
	.st0{clip-path:url(#SVGID_2_);fill:url(#SVGID_3_);}
	.st1{clip-path:url(#SVGID_5_);fill:#FFFFFF;}
</style>
<g>
	<defs>
		<path id="SVGID_1_" d="M15.5,8.8c0.3-0.6,0.7-1,1.4-1h11.6l-4.3,10.4c-0.1,0.3-0.3,0.5-0.6,0.7c-0.3,0.2-0.5,0.3-0.9,0.3H11.2
			L15.5,8.8z M15.2,0.2c-1.3,0-2.5,0.4-3.6,1.1C10.5,2,9.8,2.9,9.3,4.2L0,27h24.5c1.3,0,2.5-0.4,3.6-1.1s1.9-1.7,2.4-2.9l9.3-22.8
			H15.2z"/>
	</defs>
	<clipPath id="SVGID_2_">
		<use xlink:href="#SVGID_1_"  style="overflow:visible;"/>
	</clipPath>
	
		<linearGradient id="SVGID_3_" gradientUnits="userSpaceOnUse" x1="0" y1="27.0646" x2="1" y2="27.0646" gradientTransform="matrix(-37.0998 -3.2458 -3.2458 37.0998 126.2626 -988.8912)">
		<stop  offset="0" style="stop-color:#F39653"/>
		<stop  offset="0.3961" style="stop-color:#E83D40"/>
		<stop  offset="1" style="stop-color:#BE1622"/>
	</linearGradient>
	<polygon class="st0" points="39.4,30.4 -2.3,26.8 0.3,-3.3 42.1,0.4 	"/>
</g>
<g>
	<defs>
		<rect id="SVGID_4_" y="0" width="139.2" height="27.1"/>
	</defs>
	<clipPath id="SVGID_5_">
		<use xlink:href="#SVGID_4_"  style="overflow:visible;"/>
	</clipPath>
	<path class="st1" d="M75.3,1.9c0.2-0.6,0.6-1,1.1-1.4C76.9,0.2,77.5,0,78.1,0h6.2l-3.8,9.4h11.2c0.4,0,0.7-0.1,1-0.3
		c0.3-0.2,0.5-0.5,0.7-0.8l2.6-6.4c0.2-0.6,0.6-1,1.1-1.4c0.5-0.3,1-0.5,1.6-0.5h6.1l-5.1,12.5c-0.5,1.2-1.3,2.2-2.4,2.9
		c-1.1,0.7-2.3,1.1-3.6,1.1h-5.4L85.1,25c-0.2,0.6-0.6,1-1.1,1.4c-0.5,0.3-1,0.5-1.6,0.5h-6.3l4.2-10.3H69.3L75.3,1.9z"/>
	<path class="st1" d="M98.9,27L114,13l-8.4-12.9h6.9c1.1,0,2.1,0.3,3.1,0.8c1,0.5,1.8,1.2,2.3,2.2l2.6,4l7.4-6.9h11.3l-14.5,13.4
		l8.8,13.4h-10.4l-4.8-7.4l-8,7.4H98.9z"/>
	<path class="st1" d="M43.6,0.2h9.3l5,14.6l4.8-12c0.6-1.6,2.2-2.6,3.9-2.6h6.5L62.2,27.1H53l-5-14.6l-4.3,10.8
		c-0.9,2.3-3.1,3.8-5.6,3.8h-5.2L43.6,0.2z"/>
</g>
</svg>
