<?xml version="1.0" encoding="utf-8"?>
<!-- Generator: Adobe Illustrator 24.2.1, SVG Export Plug-In . SVG Version: 6.00 Build 0)  -->
<svg version="1.1" id="Layer_1" xmlns="http://www.w3.org/2000/svg" xmlns:xlink="http://www.w3.org/1999/xlink" x="0px" y="0px"
	 viewBox="0 0 139.2 27.1" style="enable-background:new 0 0 139.2 27.1;" xml:space="preserve">
<style type="text/css">
	.st0{fill:#2B414D;}
</style>
<path class="st0" d="M9.3,4.2C9.7,3,10.6,2,11.6,1.2c1.1-0.7,2.3-1.1,3.6-1.1h24.5L30.5,23c-0.5,1.2-1.3,2.2-2.4,2.9
	C27,26.6,25.8,27,24.5,27H0L9.3,4.2z M11.3,19.3h11.5c0.3,0,0.6-0.1,0.9-0.3c0.3-0.2,0.5-0.4,0.6-0.7l4.3-10.4H16.9
	c-0.7,0-1.2,0.4-1.4,1L11.3,19.3z"/>
<path class="st0" d="M75.3,1.9c0.2-0.6,0.6-1,1.1-1.4C76.9,0.2,77.5,0,78.1,0h6.2l-3.8,9.4h11.2c0.4,0,0.7-0.1,1-0.3
	c0.3-0.2,0.5-0.5,0.7-0.8L96,1.8c0.2-0.6,0.6-1,1.1-1.3C97.6,0.2,98.2,0,98.8,0h6.1l-5.1,12.6c-1,2.4-3.4,4-6,4h-5.3L85.1,25
	c-0.2,0.5-0.6,1-1.1,1.3c-0.5,0.3-1.1,0.5-1.6,0.5h-6.3l4.2-10.3H69.3L75.3,1.9z"/>
<path class="st0" d="M99,27l15-14l-8.4-12.9h6.9c2.2,0,4.3,1.1,5.5,3l2.6,4l7.4-7h11.3l-14.5,13.4l8.8,13.4h-10.4l-4.8-7.4l-8,7.4
	H99z"/>
<path class="st0" d="M43.6,0.1h9.3l5,14.6l4.8-12c0.6-1.6,2.1-2.6,3.8-2.6h6.5L62.2,27.1H53l-5-14.6l-4.3,10.8
	c-0.9,2.3-3.1,3.8-5.6,3.8h-5.2L43.6,0.1z"/>
</svg>
